<svg width="185" height="120" xmlns="http://www.w3.org/2000/svg" stroke-miterlimit="10" stroke-linecap="square" fill="none" version="1.1">
 <clipPath id="g27be703c7ca_0_107.0">
  <path id="svg_1" clip-rule="nonzero" d="m0,0l1280,0l0,720l-1280,0l0,-720z"/>
 </clipPath>

 <g>
  <title>Layer 1</title>
  <g id="svg_2" clip-path="url(#g27be703c7ca_0_107.0)">
   <path id="svg_3" fill-rule="evenodd" d="m-538,-287l1280,0l0,720l-1280,0l0,-720z" fill="#ffffff"/>
   <path id="svg_4" fill-rule="evenodd" d="m11.18634,9.22308l161.70081,0l0,101.0394l-161.70081,0l0,-101.0394z" fill="#9e9e9e"/>
   <path id="svg_5" fill-rule="evenodd" d="m-7.43231,18.4346l205.66931,0l0,82.55118l-205.66931,0l0,-82.55118z" fill="#ffffff"/>
   <path id="svg_6" fill-rule="evenodd" d="m20.29688,59.62943l0,0c0,-17.70789 14.3551,-32.06299 32.06299,-32.06299l0,0c8.50366,0 16.659,3.37805 22.672,9.39102c6.01294,6.013 9.39099,14.16833 9.39099,22.67197l0,0c0,17.70792 -14.35504,32.06299 -32.06299,32.06299l0,0c-17.70789,0 -32.06299,-14.35507 -32.06299,-32.06299z" fill="#ff4192"/>
   <path id="svg_7" fill-rule="evenodd" d="m29.4931,59.63245l0,0c0,-12.61993 10.23047,-22.8504 22.8504,-22.8504l0,0c6.0603,0 11.87238,2.40744 16.15765,6.69272c4.28528,4.28528 6.69275,10.09738 6.69275,16.15768l0,0c0,12.6199 -10.23047,22.85037 -22.8504,22.85037l0,0c-12.61993,0 -22.8504,-10.23047 -22.8504,-22.85037z" fill="#ffffff"/>
   <path id="svg_8" fill-rule="evenodd" d="m97.92407,59.62943l0,0c0,-17.70789 14.3551,-32.06299 32.06299,-32.06299l0,0c8.50366,0 16.659,3.37805 22.672,9.39102c6.01294,6.013 9.39099,14.16833 9.39099,22.67197l0,0c0,17.70792 -14.35504,32.06299 -32.06299,32.06299l0,0c-17.70789,0 -32.06299,-14.35507 -32.06299,-32.06299z" fill="#ff4192"/>
   <path id="svg_9" fill-rule="evenodd" d="m107.1203,59.63245l0,0c0,-12.61993 10.23047,-22.8504 22.8504,-22.8504l0,0c6.0603,0 11.87238,2.40744 16.15765,6.69272c4.28528,4.28528 6.69275,10.09738 6.69275,16.15768l0,0c0,12.6199 -10.23047,22.85037 -22.8504,22.85037l0,0c-12.61993,0 -22.8504,-10.23047 -22.8504,-22.85037z" fill="#ffffff"/>
  </g>
 </g>
</svg>