<svg version="1.1" viewBox="0.0 0.0 1280.0 720.0" fill="none" stroke="none" stroke-linecap="square" stroke-miterlimit="10" xmlns:xlink="http://www.w3.org/1999/xlink" xmlns="http://www.w3.org/2000/svg"><clipPath id="g27be703c7ca_0_107.0"><path d="m0 0l1280.0 0l0 720.0l-1280.0 0l0 -720.0z" clip-rule="nonzero"/></clipPath><g clip-path="url(#g27be703c7ca_0_107.0)"><path fill="#ffffff" d="m0 0l1280.0 0l0 720.0l-1280.0 0z" fill-rule="evenodd"/><path fill="#9e9e9e" d="m549.18634 296.22308l161.7008 0l0 101.0394l-161.7008 0z" fill-rule="evenodd"/><path fill="#ffffff" d="m530.5677 305.4346l205.66931 0l0 82.55118l-205.66931 0z" fill-rule="evenodd"/><path fill="#ff4192" d="m558.2969 346.62943l0 0c0 -17.707886 14.355103 -32.06299 32.06299 -32.06299l0 0c8.503662 0 16.658997 3.3780518 22.671997 9.391022c6.0129395 6.0130005 9.390991 14.168335 9.390991 22.671967l0 0c0 17.707916 -14.3550415 32.06299 -32.06299 32.06299l0 0c-17.707886 0 -32.06299 -14.355072 -32.06299 -32.06299z" fill-rule="evenodd"/><path fill="#ffffff" d="m567.4931 346.63245l0 0c0 -12.619934 10.230469 -22.850403 22.850403 -22.850403l0 0c6.0603027 0 11.8723755 2.4074402 16.157654 6.6927185c4.2852783 4.2852783 6.692749 10.097382 6.692749 16.157684l0 0c0 12.619904 -10.230469 22.850372 -22.850403 22.850372l0 0c-12.619934 0 -22.850403 -10.230469 -22.850403 -22.850372z" fill-rule="evenodd"/><path fill="#ff4192" d="m635.9241 346.62943l0 0c0 -17.707886 14.355103 -32.06299 32.06299 -32.06299l0 0c8.503662 0 16.658997 3.3780518 22.671997 9.391022c6.0129395 6.0130005 9.390991 14.168335 9.390991 22.671967l0 0c0 17.707916 -14.3550415 32.06299 -32.06299 32.06299l0 0c-17.707886 0 -32.06299 -14.355072 -32.06299 -32.06299z" fill-rule="evenodd"/><path fill="#ffffff" d="m645.1203 346.63245l0 0c0 -12.619934 10.230469 -22.850403 22.850403 -22.850403l0 0c6.0603027 0 11.8723755 2.4074402 16.157654 6.6927185c4.2852783 4.2852783 6.692749 10.097382 6.692749 16.157684l0 0c0 12.619904 -10.230469 22.850372 -22.850403 22.850372l0 0c-12.619934 0 -22.850403 -10.230469 -22.850403 -22.850372z" fill-rule="evenodd"/></g></svg>