<svg width="450" height="115" xmlns="http://www.w3.org/2000/svg" stroke-miterlimit="10" stroke-linecap="square" fill="none" version="1.1">
 <clipPath id="g27be703c7ca_0_96.0">
  <path id="svg_1" clip-rule="nonzero" d="m0,0l1280,0l0,720l-1280,0l0,-720z"/>
 </clipPath>

 <g>
  <title>Layer 1</title>
  <g id="svg_2" clip-path="url(#g27be703c7ca_0_96.0)">
   <path id="svg_3" fill-rule="evenodd" d="m-402,-308l1280,0l0,720l-1280,0l0,-720z" fill="#ffffff"/>
   <path id="svg_4" fill-rule="evenodd" d="m-103.91864,-6.99475l660.50397,0l0,132.50394l-660.50397,0l0,-132.50394z" fill-opacity="0" fill="#000000"/>
   <path id="svg_5" fill-rule="nonzero" d="m35.47064,46.80838q10.35938,0 16.60938,6.53125q6.26563,6.53125 6.35938,16.42188q0,9.79688 -6.35938,16.29688q-6.34375,6.48438 -15.48438,6.67188q-5.59375,0 -10.125,-2.42188q-4.53125,-2.4375 -6.67188,-6.45313l-0.1875,0l0,29.03125l-7.28125,0l0,-64.95313l7.28125,0l0,6.34375l0.1875,0q6.4375,-7.46875 15.67188,-7.46875zm-15.85938,22.95313q0,7.1875 4.32813,11.625q4.34375,4.4375 11.17188,4.625q6.8125,0 11.09375,-4.53125q4.29688,-4.53125 4.39063,-11.71875q0,-7.09375 -4.34375,-11.65625q-4.32813,-4.57813 -11.23438,-4.57813q-6.73438,0 -11.03125,4.53125q-4.28125,4.51563 -4.375,11.70313zm71.58606,-22.95313q1.67188,0 2.98438,0.46875l-0.46875,7.375q-2.04688,-0.5625 -3.92188,-0.5625q-6.34375,0 -9.5625,4.15625q-3.21875,4.14063 -3.21875,11.70313l0,21.65625l-7.28125,0l0,-33.96875q0,-1.3125 -0.375,-9.70313l6.90625,0q0.1875,6.53125 0.1875,7.1875l0.1875,0q1.76563,-3.73438 5.73438,-6.01563q3.96875,-2.29688 8.82813,-2.29688zm29.57782,0q9.70313,0 15.15625,6.10938q5.46875,6.10938 5.5625,17.3125l0,1.78125l-35.28125,0q0.5625,6.0625 4.57813,9.98438q4.01563,3.92188 9.79688,4.01563q8.875,0 13.8125,-6.625l5.51563,4.28125q-3.45313,4.48438 -8.125,6.78125q-4.67188,2.28125 -11.20313,2.28125q-9.98438,0 -16.04688,-6.48438q-6.0625,-6.5 -6.15625,-16.48438q0,-9.89063 6.20313,-16.32813q6.20313,-6.4375 16.1875,-6.625zm12.89063,19.03125q-0.28125,-5.6875 -3.6875,-9q-3.40625,-3.3125 -9.57813,-3.3125q-5.59375,0 -9.42188,3.17188q-3.82813,3.17188 -4.76563,9.14063l27.45313,0zm62.703,-44.79688l0,70.5625l-7.26563,0l0,-7.75l-0.1875,0q-2.25,4.20313 -6.82813,6.54688q-4.5625,2.32813 -9.98438,2.32813q-9.23438,0 -15.4375,-6.57813q-6.20313,-6.59375 -6.39063,-16.39063q0,-9.98438 6.39063,-16.42188q6.39063,-6.4375 16.5625,-6.53125q9.42188,0 15.6875,7.46875l0.1875,0l0,-33.23438l7.26563,0zm-38.26563,48.71875q0,7.1875 4.34375,11.67188q4.34375,4.48438 11.15625,4.57813q6.8125,0 11.0625,-4.48438q4.25,-4.48438 4.4375,-11.76563q0,-7.09375 -4.34375,-11.65625q-4.34375,-4.57813 -11.25,-4.57813q-6.71875,0 -10.96875,4.53125q-4.25,4.51563 -4.4375,11.70313zm56.00793,-44.23438q2.14063,0 3.71875,1.54688q1.59375,1.53125 1.59375,3.78125q0,2.32813 -1.5,3.82813q-1.48438,1.48438 -3.8125,1.48438q-2.34375,0 -3.84375,-1.48438q-1.48438,-1.5 -1.48438,-3.82813q0,-2.25 1.57813,-3.78125q1.59375,-1.54688 3.75,-1.54688zm3.64063,22.40625l0,43.67188l-7.28125,0l0,-43.67188l7.28125,0zm34.61749,-1.125q10.35938,0 16.70313,6.90625l-5.78125,5.125q-4.39063,-5.3125 -11.01563,-5.3125q-6.8125,0 -10.78125,4.4375q-3.96875,4.42188 -3.96875,11.79688q0,7 4.25,11.57813q4.25,4.57813 10.5,4.67188q7.1875,0 11.10938,-5.42188l5.40625,5.14063q-6.0625,6.90625 -16.51563,7q-9.98438,-0.09375 -16.1875,-6.34375q-6.20313,-6.26563 -6.39063,-16.625q0.09375,-10.45313 6.53125,-16.70313q6.4375,-6.25 16.14063,-6.25zm35.84363,-11.29688l0,12.42188l12.875,0l0,6.15625l-12.875,0l0,23.32813q0,5.23438 1.67188,6.92188q1.6875,1.67188 4.85938,1.67188q3.64063,0 6.4375,-1.5l0.28125,6.625q-3.73438,1.59375 -8.5,1.59375q-6.71875,0 -9.375,-3.3125q-2.65625,-3.3125 -2.65625,-10.875l0,-24.45313l-9.51563,0l0,-6.15625l9.51563,0l0,-12.42188l7.28125,0z" fill="#9e9e9e"/>
   <path id="svg_6" fill-rule="nonzero" d="m330.86121,46.80838q10.17188,0 16.60938,6.29688q6.4375,6.29688 6.71875,16.65625q0,9.98438 -6.53125,16.39063q-6.53125,6.39063 -16.79688,6.57813q-10.26563,0 -16.70313,-6.48438q-6.4375,-6.5 -6.625,-16.48438q0,-10.07813 6.53125,-16.46875q6.53125,-6.39063 16.79688,-6.48438zm-15.5,22.95313q0,7.1875 4.34375,11.625q4.34375,4.4375 11.15625,4.625q6.8125,0 11.10938,-4.53125q4.29688,-4.53125 4.39063,-11.71875q0,-7.09375 -4.34375,-11.65625q-4.34375,-4.57813 -11.25,-4.57813q-6.71875,0 -11.01563,4.53125q-4.29688,4.51563 -4.39063,11.70313zm70.93695,-22.95313q10.17188,0 16.60938,6.29688q6.4375,6.29688 6.71875,16.65625q0,9.98438 -6.53125,16.39063q-6.53125,6.39063 -16.79688,6.57813q-10.26563,0 -16.70313,-6.48438q-6.4375,-6.5 -6.625,-16.48438q0,-10.07813 6.53125,-16.46875q6.53125,-6.39063 16.79688,-6.48438zm-15.5,22.95313q0,7.1875 4.34375,11.625q4.34375,4.4375 11.15625,4.625q6.8125,0 11.10938,-4.53125q4.29688,-4.53125 4.39063,-11.71875q0,-7.09375 -4.34375,-11.65625q-4.34375,-4.57813 -11.25,-4.57813q-6.71875,0 -11.01563,4.53125q-4.29688,4.51563 -4.39063,11.70313z" fill="#ff4192"/>
   <path id="svg_7" fill-rule="nonzero" d="m442.39142,46.80838q1.67188,0 2.98438,0.46875l-0.46875,7.375q-2.04688,-0.5625 -3.92188,-0.5625q-6.34375,0 -9.5625,4.15625q-3.21875,4.14063 -3.21875,11.70313l0,21.65625l-7.28125,0l0,-33.96875q0,-1.3125 -0.375,-9.70313l6.90625,0q0.1875,6.53125 0.1875,7.1875l0.1875,0q1.76563,-3.73438 5.73438,-6.01563q3.96875,-2.29688 8.82813,-2.29688z" fill="#9e9e9e"/>
   <path id="svg_8" fill-rule="evenodd" d="m-0.16272,-16.60629l114.39368,0l0,61.41733l-114.39368,0l0,-61.41733z" fill-opacity="0" fill="#000000"/>
   <path id="svg_9" fill-rule="nonzero" d="m19.10291,9.03308q3.67188,0 6.14063,2.39063q2.48438,2.39063 2.48438,6.14063q0,3.67188 -2.40625,6.10938q-2.40625,2.42188 -6.21875,2.42188q-3.75,0 -6.1875,-2.42188q-2.42188,-2.4375 -2.42188,-6.10938q0,-3.60938 2.42188,-6.0625q2.4375,-2.46875 6.1875,-2.46875zm-6.10938,8.53125q0,2.8125 1.67188,4.64063q1.6875,1.8125 4.4375,1.8125q2.76563,0 4.4375,-1.85938q1.6875,-1.85938 1.6875,-4.59375q0,-2.875 -1.73438,-4.65625q-1.73438,-1.79688 -4.4375,-1.79688q-2.73438,0 -4.40625,1.85938q-1.65625,1.85938 -1.65625,4.59375zm26.51993,-8.53125q3.67188,0 6.0625,2.8125l-1.875,1.42188q-1.48438,-2.15625 -4.125,-2.15625q-2.70313,0 -4.375,1.8125q-1.65625,1.79688 -1.65625,4.64063q0,2.90625 1.65625,4.6875q1.67188,1.76563 4.26563,1.76563q2.78125,0 4.23438,-2.15625l1.875,1.42188q-2.32813,2.8125 -6.14063,2.8125q-3.73438,0 -6.0625,-2.42188q-2.32813,-2.4375 -2.32813,-6.10938q0,-3.75 2.35938,-6.14063q2.35938,-2.39063 6.10938,-2.39063zm16.39182,0q3.5625,0 5.67188,2.34375q2.125,2.34375 2.125,6.125l0,0.6875l-13.51563,0q0.26563,2.53125 1.92188,4.1875q1.67188,1.64063 4.03125,1.64063q1.5625,0 2.96875,-0.75q1.40625,-0.75 2.23438,-2.0625l1.76563,1.45313q-2.76563,3.4375 -6.96875,3.4375q-3.59375,0 -6,-2.42188q-2.39063,-2.4375 -2.39063,-6.10938q0,-3.5625 2.35938,-6.04688q2.35938,-2.48438 5.79688,-2.48438zm5.29688,7.28125q0,-2.39063 -1.4375,-3.79688q-1.4375,-1.40625 -3.82813,-1.40625q-2.10938,0 -3.85938,1.54688q-1.75,1.54688 -1.82813,3.65625l10.95313,0zm13.37827,-7.28125q2.8125,0 4.375,1.5625q1.57813,1.5625 1.57813,4.09375l0,7.51563q0,1.59375 0.28125,3.46875l-2.21875,0q-0.20313,-1.07813 -0.20313,-2.64063l-0.0625,0q-1.01563,1.59375 -2.39063,2.32813q-1.35938,0.73438 -3.32813,0.73438q-2.5,0 -4.04688,-1.3125q-1.54688,-1.32813 -1.54688,-3.4375q0,-2.92188 2.4375,-4.26563q2.45313,-1.35938 7.76563,-1.35938l1.03125,0l0,-0.34375q0,-2.21875 -1.03125,-3.23438q-1.01563,-1.03125 -3.125,-1.03125q-2.84375,0 -4.95313,1.90625l-1.39063,-1.625q2.28125,-2.35938 6.82813,-2.35938zm-5.0625,12q0,1.39063 1.04688,2.1875q1.0625,0.79688 2.76563,0.79688q2.21875,0 3.5625,-1.375q1.35938,-1.375 1.35938,-4.17188l0,-0.875l-1.59375,0q-3.25,0 -5.20313,0.84375q-1.9375,0.82813 -1.9375,2.59375zm24.12726,-12q3.04688,0 4.5625,1.64063q1.53125,1.625 1.53125,4.5625l0,10.4375l-2.28125,0l0,-9.15625q0,-2.73438 -1.01563,-4.0625q-1,-1.34375 -3.25,-1.34375q-2.21875,0 -3.64063,1.70313q-1.42188,1.70313 -1.42188,4.6875l0,8.17188l-2.28125,0l0,-12.78125q0,-1.98438 -0.17188,-3.4375l2.34375,0q0.10938,0.96875 0.10938,2.59375l0.07813,0q0.75,-1.34375 2.28125,-2.17188q1.53125,-0.84375 3.15625,-0.84375z" fill="#9e9e9e"/>
  </g>
 </g>
</svg>