<svg version="1.1" viewBox="0.0 0.0 1280.0 720.0" fill="none" stroke="none" stroke-linecap="square" stroke-miterlimit="10" xmlns:xlink="http://www.w3.org/1999/xlink" xmlns="http://www.w3.org/2000/svg"><clipPath id="g27be703c7ca_0_96.0"><path d="m0 0l1280.0 0l0 720.0l-1280.0 0l0 -720.0z" clip-rule="nonzero"/></clipPath><g clip-path="url(#g27be703c7ca_0_96.0)"><path fill="#ffffff" d="m0 0l1280.0 0l0 720.0l-1280.0 0z" fill-rule="evenodd"/><path fill="#000000" fill-opacity="0.0" d="m298.08136 301.00525l660.50397 0l0 132.50394l-660.50397 0z" fill-rule="evenodd"/><path fill="#9e9e9e" d="m437.47064 354.80838q10.359375 0 16.609375 6.53125q6.265625 6.53125 6.359375 16.421875q0 9.796875 -6.359375 16.296875q-6.34375 6.484375 -15.484375 6.671875q-5.59375 0 -10.125 -2.421875q-4.53125 -2.4375 -6.671875 -6.453125l-0.1875 0l0 29.03125l-7.28125 0l0 -64.953125l7.28125 0l0 6.34375l0.1875 0q6.4375 -7.46875 15.671875 -7.46875zm-15.859375 22.953125q0 7.1875 4.328125 11.625q4.34375 4.4375 11.171875 4.625q6.8125 0 11.09375 -4.53125q4.296875 -4.53125 4.390625 -11.71875q0 -7.09375 -4.34375 -11.65625q-4.328125 -4.578125 -11.234375 -4.578125q-6.734375 0 -11.03125 4.53125q-4.28125 4.515625 -4.375 11.703125zm71.58606 -22.953125q1.671875 0 2.984375 0.46875l-0.46875 7.375q-2.046875 -0.5625 -3.921875 -0.5625q-6.34375 0 -9.5625 4.15625q-3.21875 4.140625 -3.21875 11.703125l0 21.65625l-7.28125 0l0 -33.96875q0 -1.3125 -0.375 -9.703125l6.90625 0q0.1875 6.53125 0.1875 7.1875l0.1875 0q1.765625 -3.734375 5.734375 -6.015625q3.96875 -2.296875 8.828125 -2.296875zm29.57782 0q9.703125 0 15.15625 6.109375q5.46875 6.109375 5.5625 17.3125l0 1.78125l-35.28125 0q0.5625 6.0625 4.578125 9.984375q4.015625 3.921875 9.796875 4.015625q8.875 0 13.8125 -6.625l5.515625 4.28125q-3.453125 4.484375 -8.125 6.78125q-4.671875 2.28125 -11.203125 2.28125q-9.984375 0 -16.046875 -6.484375q-6.0625 -6.5 -6.15625 -16.484375q0 -9.890625 6.203125 -16.328125q6.203125 -6.4375 16.1875 -6.625zm12.890625 19.03125q-0.28125 -5.6875 -3.6875 -9.0q-3.40625 -3.3125 -9.578125 -3.3125q-5.59375 0 -9.421875 3.171875q-3.828125 3.171875 -4.765625 9.140625l27.453125 0zm62.703003 -44.796875l0 70.5625l-7.265625 0l0 -7.75l-0.1875 0q-2.25 4.203125 -6.828125 6.546875q-4.5625 2.328125 -9.984375 2.328125q-9.234375 0 -15.4375 -6.578125q-6.203125 -6.59375 -6.390625 -16.390625q0 -9.984375 6.390625 -16.421875q6.390625 -6.4375 16.5625 -6.53125q9.421875 0 15.6875 7.46875l0.1875 0l0 -33.234375l7.265625 0zm-38.265625 48.71875q0 7.1875 4.34375 11.671875q4.34375 4.484375 11.15625 4.578125q6.8125 0 11.0625 -4.484375q4.25 -4.484375 4.4375 -11.765625q0 -7.09375 -4.34375 -11.65625q-4.34375 -4.578125 -11.25 -4.578125q-6.71875 0 -10.96875 4.53125q-4.25 4.515625 -4.4375 11.703125zm56.007935 -44.234375q2.140625 0 3.71875 1.546875q1.59375 1.53125 1.59375 3.78125q0 2.328125 -1.5 3.828125q-1.484375 1.484375 -3.8125 1.484375q-2.34375 0 -3.84375 -1.484375q-1.484375 -1.5 -1.484375 -3.828125q0 -2.25 1.578125 -3.78125q1.59375 -1.546875 3.75 -1.546875zm3.640625 22.40625l0 43.671875l-7.28125 0l0 -43.671875l7.28125 0zm34.617493 -1.125q10.359375 0 16.703125 6.90625l-5.78125 5.125q-4.390625 -5.3125 -11.015625 -5.3125q-6.8125 0 -10.78125 4.4375q-3.96875 4.421875 -3.96875 11.796875q0 7.0 4.25 11.578125q4.25 4.578125 10.5 4.671875q7.1875 0 11.109375 -5.421875l5.40625 5.140625q-6.0625 6.90625 -16.515625 7.0q-9.984375 -0.09375 -16.1875 -6.34375q-6.203125 -6.265625 -6.390625 -16.625q0.09375 -10.453125 6.53125 -16.703125q6.4375 -6.25 16.140625 -6.25zm35.843628 -11.296875l0 12.421875l12.875 0l0 6.15625l-12.875 0l0 23.328125q0 5.234375 1.671875 6.921875q1.6875 1.671875 4.859375 1.671875q3.640625 0 6.4375 -1.5l0.28125 6.625q-3.734375 1.59375 -8.5 1.59375q-6.71875 0 -9.375 -3.3125q-2.65625 -3.3125 -2.65625 -10.875l0 -24.453125l-9.515625 0l0 -6.15625l9.515625 0l0 -12.421875l7.28125 0z" fill-rule="nonzero"/><path fill="#ff4192" d="m732.8612 354.80838q10.171875 0 16.609375 6.296875q6.4375 6.296875 6.71875 16.65625q0 9.984375 -6.53125 16.390625q-6.53125 6.390625 -16.796875 6.578125q-10.265625 0 -16.703125 -6.484375q-6.4375 -6.5 -6.625 -16.484375q0 -10.078125 6.53125 -16.46875q6.53125 -6.390625 16.796875 -6.484375zm-15.5 22.953125q0 7.1875 4.34375 11.625q4.34375 4.4375 11.15625 4.625q6.8125 0 11.109375 -4.53125q4.296875 -4.53125 4.390625 -11.71875q0 -7.09375 -4.34375 -11.65625q-4.34375 -4.578125 -11.25 -4.578125q-6.71875 0 -11.015625 4.53125q-4.296875 4.515625 -4.390625 11.703125zm70.93695 -22.953125q10.171875 0 16.609375 6.296875q6.4375 6.296875 6.71875 16.65625q0 9.984375 -6.53125 16.390625q-6.53125 6.390625 -16.796875 6.578125q-10.265625 0 -16.703125 -6.484375q-6.4375 -6.5 -6.625 -16.484375q0 -10.078125 6.53125 -16.46875q6.53125 -6.390625 16.796875 -6.484375zm-15.5 22.953125q0 7.1875 4.34375 11.625q4.34375 4.4375 11.15625 4.625q6.8125 0 11.109375 -4.53125q4.296875 -4.53125 4.390625 -11.71875q0 -7.09375 -4.34375 -11.65625q-4.34375 -4.578125 -11.25 -4.578125q-6.71875 0 -11.015625 4.53125q-4.296875 4.515625 -4.390625 11.703125z" fill-rule="nonzero"/><path fill="#9e9e9e" d="m844.3914 354.80838q1.671875 0 2.984375 0.46875l-0.46875 7.375q-2.046875 -0.5625 -3.921875 -0.5625q-6.34375 0 -9.5625 4.15625q-3.21875 4.140625 -3.21875 11.703125l0 21.65625l-7.28125 0l0 -33.96875q0 -1.3125 -0.375 -9.703125l6.90625 0q0.1875 6.53125 0.1875 7.1875l0.1875 0q1.765625 -3.734375 5.734375 -6.015625q3.96875 -2.296875 8.828125 -2.296875z" fill-rule="nonzero"/><path fill="#000000" fill-opacity="0.0" d="m401.83728 291.3937l114.39368 0l0 61.417328l-114.39368 0z" fill-rule="evenodd"/><path fill="#9e9e9e" d="m421.1029 317.03308q3.671875 0 6.140625 2.390625q2.484375 2.390625 2.484375 6.140625q0 3.671875 -2.40625 6.109375q-2.40625 2.421875 -6.21875 2.421875q-3.75 0 -6.1875 -2.421875q-2.421875 -2.4375 -2.421875 -6.109375q0 -3.609375 2.421875 -6.0625q2.4375 -2.46875 6.1875 -2.46875zm-6.109375 8.53125q0 2.8125 1.671875 4.640625q1.6875 1.8125 4.4375 1.8125q2.765625 0 4.4375 -1.859375q1.6875 -1.859375 1.6875 -4.59375q0 -2.875 -1.734375 -4.65625q-1.734375 -1.796875 -4.4375 -1.796875q-2.734375 0 -4.40625 1.859375q-1.65625 1.859375 -1.65625 4.59375zm26.519928 -8.53125q3.671875 0 6.0625 2.8125l-1.875 1.421875q-1.484375 -2.15625 -4.125 -2.15625q-2.703125 0 -4.375 1.8125q-1.65625 1.796875 -1.65625 4.640625q0 2.90625 1.65625 4.6875q1.671875 1.765625 4.265625 1.765625q2.78125 0 4.234375 -2.15625l1.875 1.421875q-2.328125 2.8125 -6.140625 2.8125q-3.734375 0 -6.0625 -2.421875q-2.328125 -2.4375 -2.328125 -6.109375q0 -3.75 2.359375 -6.140625q2.359375 -2.390625 6.109375 -2.390625zm16.391815 0q3.5625 0 5.671875 2.34375q2.125 2.34375 2.125 6.125l0 0.6875l-13.515625 0q0.265625 2.53125 1.921875 4.1875q1.671875 1.640625 4.03125 1.640625q1.5625 0 2.96875 -0.75q1.40625 -0.75 2.234375 -2.0625l1.765625 1.453125q-2.765625 3.4375 -6.96875 3.4375q-3.59375 0 -6.0 -2.421875q-2.390625 -2.4375 -2.390625 -6.109375q0 -3.5625 2.359375 -6.046875q2.359375 -2.484375 5.796875 -2.484375zm5.296875 7.28125q0 -2.390625 -1.4375 -3.796875q-1.4375 -1.40625 -3.828125 -1.40625q-2.109375 0 -3.859375 1.546875q-1.75 1.546875 -1.828125 3.65625l10.953125 0zm13.378265 -7.28125q2.8125 0 4.375 1.5625q1.578125 1.5625 1.578125 4.09375l0 7.515625q0 1.59375 0.28125 3.46875l-2.21875 0q-0.203125 -1.078125 -0.203125 -2.640625l-0.0625 0q-1.015625 1.59375 -2.390625 2.328125q-1.359375 0.734375 -3.328125 0.734375q-2.5 0 -4.046875 -1.3125q-1.546875 -1.328125 -1.546875 -3.4375q0 -2.921875 2.4375 -4.265625q2.453125 -1.359375 7.765625 -1.359375l1.03125 0l0 -0.34375q0 -2.21875 -1.03125 -3.234375q-1.015625 -1.03125 -3.125 -1.03125q-2.84375 0 -4.953125 1.90625l-1.390625 -1.625q2.28125 -2.359375 6.828125 -2.359375zm-5.0625 12.0q0 1.390625 1.046875 2.1875q1.0625 0.796875 2.765625 0.796875q2.21875 0 3.5625 -1.375q1.359375 -1.375 1.359375 -4.171875l0 -0.875l-1.59375 0q-3.25 0 -5.203125 0.84375q-1.9375 0.828125 -1.9375 2.59375zm24.127258 -12.0q3.046875 0 4.5625 1.640625q1.53125 1.625 1.53125 4.5625l0 10.4375l-2.28125 0l0 -9.15625q0 -2.734375 -1.015625 -4.0625q-1.0 -1.34375 -3.25 -1.34375q-2.21875 0 -3.640625 1.703125q-1.421875 1.703125 -1.421875 4.6875l0 8.171875l-2.28125 0l0 -12.78125q0 -1.984375 -0.171875 -3.4375l2.34375 0q0.109375 0.96875 0.109375 2.59375l0.078125 0q0.75 -1.34375 2.28125 -2.171875q1.53125 -0.84375 3.15625 -0.84375z" fill-rule="nonzero"/></g></svg>